<?xml version="1.0" encoding="UTF-8"?>
<!DOCTYPE svg PUBLIC "-//W3C//DTD SVG 1.1//EN" "http://www.w3.org/Graphics/SVG/1.1/DTD/svg11.dtd">
<!-- Creator: CorelDRAW 2021 (64 Bit) -->
<svg xmlns="http://www.w3.org/2000/svg" xml:space="preserve" width="130mm" height="33.1792mm" version="1.1" style="shape-rendering:geometricPrecision; text-rendering:geometricPrecision; image-rendering:optimizeQuality; fill-rule:evenodd; clip-rule:evenodd"
viewBox="0 0 12396.68 3163.94"
 xmlns:xlink="http://www.w3.org/1999/xlink"
 xmlns:xodm="http://www.corel.com/coreldraw/odm/2003">
 <defs>
  <style type="text/css">
   <![CDATA[
    .str0 {stroke:#3266AF;stroke-width:23.84;stroke-miterlimit:22.9256}
    .fil0 {fill:none}
    .fil3 {fill:#FFF212}
    .fil1 {fill:#3266AF}
    .fil5 {fill:#00AFEF}
    .fil4 {fill:#00A859}
    .fil2 {fill:#3266AF;fill-rule:nonzero}
    .fil6 {fill:#00A859;fill-rule:nonzero}
   ]]>
  </style>
 </defs>
 <g id="Layer_x0020_1">
  <metadata id="CorelCorpID_0Corel-Layer"/>
  <rect class="fil0" width="12396.68" height="3163.94"/>
  <g id="_2605723188160">
   <path class="fil1" d="M435.84 2353.71l0 -1998.86 793.68 0c179.1,0 315.86,9.31 410.23,28.39 131.93,26.52 244.55,74.45 337.85,143.31 121.74,89.33 212.36,202.87 272.43,341.52 60.59,138.65 90.63,297.32 90.63,475.52 0,151.68 -20.38,286.15 -61.14,403.4 -40.74,117.25 -93.3,214.5 -157.11,291.27 -64.36,76.76 -134.07,137.25 -210.23,180.99 -75.61,44.2 -167.31,77.71 -274.56,100.5 -107.79,22.8 -231.14,33.97 -370.57,33.97l-831.22 0zm305.67 -234.51l491.22 0c151.76,0 270.81,-12.09 357.15,-36.75 86.35,-24.66 154.99,-59.09 206.47,-103.75 71.85,-62.82 128.16,-147.5 168.39,-253.59 40.21,-106.08 60.59,-234.5 60.59,-385.72 0,-209.38 -39.69,-370.37 -118.53,-482.97 -78.81,-112.6 -174.81,-187.97 -287.96,-226.13 -81.52,-27.45 -212.91,-40.95 -394.17,-40.95l-483.17 0 0 1529.85z"/>
   <path class="fil2" d="M4022.48 2395l-606.52 -1998.86 316.4 0 345.34 1310.7c37.55,137.26 70.79,273.59 99.22,408.53 60.6,-213.1 96,-335.94 106.18,-368.51l435.45 -1350.72 367.35 0 330.34 1011.99c80.97,251.26 141.03,487.16 179.65,707.24 30.57,-126.09 69.71,-270.8 117.44,-434.11l359.84 -1285.12 306.21 0 -630.66 1998.86 -296.55 0 -483.18 -1522.88c-40.76,-127.49 -65.43,-205.65 -74.54,-234.51 -26.27,91.2 -49.87,169.37 -70.25,234.05l-483.18 1523.33 -318.54 0z"/>
   <polygon class="fil2" points="10270.23,2336.83 10270.23,572.48 9510.88,572.48 9510.88,337.97 11335.27,337.97 11335.27,572.48 10575.91,572.48 10575.91,2336.83 "/>
   <polygon class="fil1" points="2862.7,353.21 2935.69,353.21 2935.69,2350.06 2862.7,2350.06 "/>
   <path class="fil1" d="M6771.14 1638.7l0 -109.42c0,-25.99 49.22,-141.2 61.8,-160.22 31.96,-48.38 66.81,-84.79 111.57,-122.01 203.49,-169.2 542.94,-153.74 723.97,5.98 66.88,59.01 163.07,190 163.07,301.12l0 452.56c0,17.15 -4.24,19.26 -5.73,34.82 -240.44,0 -531.72,20.54 -719.32,-32.36 -114.42,-32.26 -247.52,-145.78 -289.69,-241 -6.33,-14.29 -45.67,-117.98 -45.67,-129.45zm464.28 711.15l917.12 0c13.43,0 22.92,-8.25 22.92,-19.89l0 -870.29c0,-59.07 -74.48,-204.35 -101.53,-250.08 -121.96,-206.23 -441.85,-396.43 -729.6,-396.43l-91.72 0c-234.95,0 -462.69,126.68 -585.22,228.28 -58.14,48.19 -138.87,147.89 -172.91,217.98 -60.02,123.6 -67.27,141.15 -67.27,314.63l0 15.55c0.07,156.62 2.09,185.49 60.55,299.91 45.6,89.24 98.61,155.7 169.1,221.3 55.85,51.97 163.06,125.59 243.65,156.62 69.22,26.64 244.32,82.42 334.9,82.42z"/>
   <path class="fil1" d="M8820.2 809.67l0 1518.96c0,18.28 10.52,27.41 31.57,27.41l221.11 0c19.87,0 22.55,-25.16 22.55,-43.06l0 -1620.74c0,-55.11 -74.25,3.36 -152.24,40.17 -25.48,12.02 -122.99,52.54 -122.99,77.28z"/>
   <polygon class="fil3" points="8820.29,375.32 9095.91,242.14 9095.91,486.94 8820.29,620.13 "/>
   <polygon class="fil4" points="8820.29,432.65 9095.91,299.48 9095.91,544.28 8820.29,677.46 "/>
   <polygon class="fil5" points="8819.83,568.27 9095.46,435.09 9095.46,679.9 8819.83,813.08 "/>
   <path class="fil0 str0" d="M11741.86 339.55c120.94,0 218.99,83.69 218.99,186.92 0,103.24 -98.05,186.93 -218.99,186.93 -120.94,0 -218.99,-83.7 -218.99,-186.93 0,-103.24 98.05,-186.92 218.99,-186.92z"/>
   <path class="fil2" d="M11728.26 547.12l-16.75 0 0 64.59c0,8.53 -2.19,14.76 -6.59,18.8 -4.39,4.03 -10.16,6.04 -17.19,6.04 -7.63,0 -13.56,-2.1 -17.74,-6.31 -4.17,-4.23 -6.25,-10.37 -6.25,-18.52l0 -154.92c0,-8.75 2.3,-15.13 6.91,-19.07 4.62,-3.94 12.08,-5.9 22.34,-5.9l77.71 0c10.7,0 19.87,0.37 27.51,1.17 7.63,0.79 14.49,2.34 20.59,4.73 7.42,2.67 13.95,6.47 19.66,11.4 5.65,4.96 9.98,10.74 12.9,17.24 2.97,6.56 4.44,13.5 4.44,20.86 0,14.99 -4.94,27 -14.87,36 -9.96,8.95 -24.99,15.32 -45.15,19.07 8.45,3.84 16.58,9.52 24.33,17.02 7.69,7.49 14.61,15.51 20.65,23.94 6.04,8.49 10.76,16.08 14.16,22.92 3.36,6.8 5.05,11.48 5.05,14.06 0,2.62 -0.99,5.25 -2.97,7.88 -1.97,2.62 -4.66,4.69 -8.12,6.19 -3.4,1.5 -7.42,2.24 -11.92,2.24 -5.32,0 -9.83,-1.07 -13.5,-3.22 -3.62,-2.16 -6.76,-4.88 -9.39,-8.16 -2.63,-3.28 -6.2,-8.15 -10.71,-14.52l-19.17 -27.19c-6.87,-9.95 -13.01,-17.53 -18.39,-22.73 -5.44,-5.25 -10.93,-8.81 -16.54,-10.74 -5.54,-1.93 -12.56,-2.85 -21.02,-2.85zm27.35 -84.65l-44.1 0 0 55.39 42.77 0c11.48,0 21.15,-0.84 29,-2.53 7.79,-1.69 13.79,-4.59 17.9,-8.67 4.12,-4.09 6.22,-9.71 6.22,-16.83 0,-5.63 -1.66,-10.55 -5,-14.81 -3.3,-4.26 -7.91,-7.46 -13.84,-9.56 -5.56,-2.02 -16.54,-2.99 -32.95,-2.99z"/>
   <path class="fil6" d="M2233.89 2519.62l-213.06 0 0 114.91 196.22 0c14.45,0 25.2,3.26 32.28,9.68 7.16,6.43 10.65,15.02 10.65,25.58 0,10.56 -3.49,19.25 -10.44,25.89 -7.06,6.64 -17.82,10.02 -32.49,10.02l-196.22 0 0 133.18 220.35 0c14.89,0 26.08,3.48 33.59,10.35 7.6,6.86 11.4,16.11 11.4,27.52 0,10.99 -3.8,20.03 -11.4,26.88 -7.5,6.85 -18.7,10.34 -33.59,10.34l-256.97 0c-20.53,0 -35.32,-4.58 -44.34,-13.71 -9.03,-9.14 -13.59,-23.94 -13.59,-44.28l0 -351.47c0,-13.61 2.07,-24.71 6.08,-33.3 4.02,-8.6 10.33,-14.9 18.92,-18.82 8.58,-3.92 19.57,-5.88 32.93,-5.88l249.69 0c15.1,0 26.31,3.38 33.59,10.01 7.29,6.75 10.98,15.56 10.98,26.33 0,11.11 -3.69,20.03 -10.98,26.77 -7.28,6.64 -18.48,10.02 -33.59,10.02zm647.89 -24.16l181.75 275.52 0 -278.12c0,-18.07 3.89,-31.56 11.62,-40.58 7.71,-9.04 18.16,-13.61 31.31,-13.61 13.48,0 24.23,4.46 32.06,13.49 7.83,9.03 11.74,22.63 11.74,40.7l0 367.46c0,41.02 -16.95,61.49 -50.87,61.49 -8.47,0 -16.08,-1.2 -22.93,-3.7 -6.74,-2.4 -13.15,-6.32 -19.01,-11.54 -5.98,-5.34 -11.42,-11.53 -16.53,-18.72 -5.11,-7.08 -10.22,-14.36 -15.33,-21.76l-177.28 -272.04 0 273.56c0,17.86 -4.13,31.34 -12.39,40.48 -8.37,9.14 -19.02,13.72 -31.95,13.72 -13.38,0 -24.14,-4.58 -32.18,-13.83 -8.14,-9.25 -12.18,-22.74 -12.18,-40.38l0 -360.38c0,-15.34 1.75,-27.32 5.12,-36.02 4.01,-9.57 10.76,-17.41 20.11,-23.51 9.35,-5.98 19.45,-9.03 30.21,-9.03 8.59,0 15.88,1.42 21.86,4.14 6.07,2.82 11.4,6.52 15.96,11.2 4.58,4.67 9.24,10.66 14.04,18.17 4.78,7.4 9.78,15.13 14.89,23.29zm1195.63 228.51l0 89.56c0,11.97 -1.2,21.44 -3.48,28.5 -2.39,7.19 -6.63,13.6 -12.94,19.26 -6.3,5.77 -14.35,11.32 -24.13,16.65 -28.16,15.23 -55.33,26.34 -81.42,33.4 -26.09,6.96 -54.56,10.45 -85.33,10.45 -35.87,0 -68.58,-5.56 -98.05,-16.54 -29.56,-11.1 -54.68,-27.1 -75.44,-48.21 -20.86,-20.99 -36.85,-46.45 -47.93,-76.38 -11.2,-30.03 -16.75,-63.43 -16.75,-100.42 0,-36.36 5.43,-69.54 16.19,-99.79 10.87,-30.13 26.74,-55.71 47.83,-76.82 20.98,-21 46.53,-37.1 76.74,-48.2 30.11,-11.2 64.24,-16.75 102.51,-16.75 31.4,0 59.24,4.24 83.37,12.63 24.24,8.37 43.9,18.93 58.91,31.67 15.1,12.72 26.4,26.21 34.12,40.47 7.63,14.25 11.41,26.88 11.41,37.97 0,11.86 -4.44,21.98 -13.25,30.36 -8.81,8.49 -19.36,12.63 -31.75,12.63 -6.74,0 -13.26,-1.53 -19.58,-4.8 -6.29,-3.15 -11.51,-7.61 -15.75,-13.26 -11.74,-18.29 -21.52,-32.1 -29.56,-41.46 -8.15,-9.25 -19.03,-17.19 -32.61,-23.51 -13.7,-6.42 -31.2,-9.57 -52.39,-9.57 -21.86,0 -41.42,3.8 -58.59,11.31 -17.17,7.51 -31.85,18.5 -44.03,32.87 -12.18,14.26 -21.52,31.88 -28.05,52.66 -6.41,20.9 -9.67,43.97 -9.67,69.21 0,54.84 12.61,96.95 37.71,126.55 25.11,29.49 60.22,44.28 105.1,44.28 21.86,0 42.41,-2.82 61.64,-8.59 19.12,-5.77 38.7,-13.93 58.37,-24.59l0 -75.84 -73.16 0c-17.6,0 -30.97,-2.61 -39.99,-7.94 -9.02,-5.34 -13.48,-14.37 -13.48,-27.21 0,-10.34 3.81,-19.05 11.31,-25.79 7.5,-6.86 17.72,-10.22 30.76,-10.22l107.28 0c13.15,0 24.35,1.2 33.48,3.47 9.14,2.4 16.53,7.63 22.07,15.68 5.65,8.05 8.49,20.24 8.49,36.34zm794.63 -204.35l-213.05 0 0 114.91 196.2 0c14.47,0 25.22,3.26 32.29,9.68 7.16,6.43 10.65,15.02 10.65,25.58 0,10.56 -3.49,19.25 -10.44,25.89 -7.06,6.64 -17.82,10.02 -32.5,10.02l-196.2 0 0 133.18 220.34 0c14.89,0 26.08,3.48 33.59,10.35 7.61,6.86 11.4,16.11 11.4,27.52 0,10.99 -3.8,20.03 -11.4,26.88 -7.5,6.85 -18.7,10.34 -33.59,10.34l-256.97 0c-20.54,0 -35.32,-4.58 -44.34,-13.71 -9.02,-9.14 -13.59,-23.94 -13.59,-44.28l0 -351.47c0,-13.61 2.07,-24.71 6.09,-33.3 4.01,-8.6 10.32,-14.9 18.91,-18.82 8.58,-3.92 19.57,-5.88 32.93,-5.88l249.69 0c15.11,0 26.31,3.38 33.59,10.01 7.29,6.75 10.99,15.56 10.99,26.33 0,11.11 -3.7,20.03 -10.99,26.77 -7.28,6.64 -18.47,10.02 -33.59,10.02zm647.89 -24.16l181.75 275.52 0 -278.12c0,-18.07 3.9,-31.56 11.61,-40.58 7.71,-9.04 18.16,-13.61 31.32,-13.61 13.47,0 24.23,4.46 32.06,13.49 7.83,9.03 11.74,22.63 11.74,40.7l0 367.46c0,41.02 -16.95,61.49 -50.86,61.49 -8.48,0 -16.09,-1.2 -22.94,-3.7 -6.74,-2.4 -13.14,-6.32 -19.02,-11.54 -5.97,-5.34 -11.4,-11.53 -16.52,-18.72 -5.11,-7.08 -10.22,-14.36 -15.32,-21.76l-177.3 -272.04 0 273.56c0,17.86 -4.12,31.34 -12.38,40.48 -8.37,9.14 -19.02,13.72 -31.96,13.72 -13.37,0 -24.13,-4.58 -32.17,-13.83 -8.14,-9.25 -12.18,-22.74 -12.18,-40.38l0 -360.38c0,-15.34 1.75,-27.32 5.12,-36.02 4.01,-9.57 10.76,-17.41 20.1,-23.51 9.35,-5.98 19.46,-9.03 30.23,-9.03 8.58,0 15.86,1.42 21.85,4.14 6.07,2.82 11.4,6.52 15.97,11.2 4.56,4.67 9.24,10.66 14.02,18.17 4.79,7.4 9.79,15.13 14.9,23.29zm864.32 0.54l0 133.95 204.14 0 0 -133.95c0,-19.04 4.35,-33.4 12.93,-42.98 8.59,-9.57 19.89,-14.36 33.92,-14.36 14.13,0 25.65,4.67 34.44,14.14 8.81,9.47 13.27,23.83 13.27,43.2l0 368.12c0,19.37 -4.46,33.73 -13.38,43.3 -8.91,9.57 -20.43,14.37 -34.34,14.37 -14.24,0 -25.65,-4.8 -34.14,-14.48 -8.47,-9.68 -12.71,-24.05 -12.71,-43.2l0 -157.12 -204.14 0 0 157.12c0,19.37 -4.46,33.73 -13.37,43.3 -8.92,9.57 -20.44,14.37 -34.36,14.37 -14.24,0 -25.64,-4.8 -34.12,-14.48 -8.49,-9.68 -12.73,-24.05 -12.73,-43.2l0 -368.12c0,-19.15 4.24,-33.4 12.62,-42.98 8.37,-9.57 19.79,-14.36 34.23,-14.36 14.14,0 25.65,4.67 34.46,14.14 8.8,9.47 13.26,23.94 13.26,43.2zm1096.17 364.96l-22.29 -58.64 -189.77 0 -22.29 59.84c-8.7,23.4 -16.1,39.17 -22.29,47.33 -6.07,8.17 -16.19,12.31 -30.21,12.31 -11.84,0 -22.39,-4.36 -31.53,-13.06 -9.14,-8.71 -13.7,-18.6 -13.7,-29.6 0,-6.42 1.1,-13.05 3.16,-19.81 2.18,-6.85 5.65,-16.21 10.55,-28.4l119.35 -303.37c3.48,-8.72 7.5,-19.15 12.27,-31.34 4.8,-12.3 9.9,-22.41 15.34,-30.47 5.43,-8.05 12.49,-14.58 21.3,-19.59 8.79,-5.01 19.66,-7.5 32.61,-7.5 13.25,0 24.23,2.5 33.04,7.5 8.8,5.01 15.86,11.43 21.29,19.25 5.45,7.84 10,16.34 13.7,25.36 3.69,9.04 8.48,21.11 14.12,36.13l121.96 301.53c9.56,22.95 14.34,39.61 14.34,50.04 0,10.78 -4.44,20.79 -13.46,29.83 -9.03,9.02 -20.01,13.49 -32.73,13.49 -7.39,0 -13.81,-1.31 -19.13,-4.02 -5.23,-2.61 -9.67,-6.21 -13.37,-10.78 -3.58,-4.58 -7.39,-11.64 -11.52,-21.01 -4.24,-9.46 -7.72,-17.84 -10.76,-25.03zm-187.19 -129.8l139.46 0 -70.32 -192.61 -69.14 192.61zm881.49 -16.98l-33.17 0 0 149.95c0,19.8 -4.34,34.27 -13.03,43.63 -8.71,9.36 -20.11,14.05 -34.02,14.05 -15.11,0 -26.85,-4.9 -35.12,-14.69 -8.26,-9.79 -12.39,-24.05 -12.39,-42.98l0 -359.63c0,-20.36 4.56,-35.16 13.69,-44.28 9.14,-9.14 23.93,-13.72 44.24,-13.72l153.81 0c21.19,0 39.35,0.88 54.45,2.72 15.12,1.86 28.7,5.45 40.78,11 14.67,6.19 27.61,15.01 38.92,26.43 11.19,11.54 19.77,24.92 25.54,40.04 5.86,15.23 8.8,31.33 8.8,48.42 0,34.82 -9.78,62.68 -29.46,83.57 -19.67,20.78 -49.46,35.58 -89.34,44.28 16.73,8.92 32.81,22.09 48.16,39.5 15.21,17.41 28.89,36.02 40.86,55.6 11.96,19.69 21.3,37.32 28.05,53.21 6.63,15.78 9.99,26.66 9.99,32.64 0,6.09 -1.95,12.19 -5.87,18.28 -3.9,6.1 -9.24,10.88 -16.08,14.37 -6.74,3.47 -14.68,5.23 -23.59,5.23 -10.54,0 -19.45,-2.51 -26.73,-7.51 -7.18,-5.01 -13.38,-11.31 -18.6,-18.93 -5.22,-7.62 -12.28,-18.94 -21.2,-33.74l-37.93 -63.11c-13.59,-23.07 -25.77,-40.7 -36.42,-52.78 -10.76,-12.19 -21.63,-20.45 -32.72,-24.91 -10.98,-4.47 -24.88,-6.65 -41.62,-6.65zm54.13 -196.52l-87.29 0 0 128.62 84.68 0c22.71,0 41.85,-1.95 57.4,-5.87 15.44,-3.92 27.29,-10.67 35.44,-20.13 8.15,-9.47 12.27,-22.52 12.27,-39.07 0,-13.05 -3.26,-24.48 -9.9,-34.39 -6.51,-9.9 -15.64,-17.3 -27.39,-22.19 -10.97,-4.68 -32.71,-6.97 -65.22,-6.97zm688.76 346.47l0 -368.12c0,-19.15 4.35,-33.4 13.05,-42.98 8.7,-9.57 20.01,-14.36 33.8,-14.36 14.13,0 25.65,4.67 34.45,14.14 8.81,9.47 13.26,23.83 13.26,43.2l0 368.12c0,19.37 -4.45,33.73 -13.26,43.3 -8.8,9.57 -20.32,14.37 -34.45,14.37 -13.58,0 -24.78,-4.8 -33.59,-14.48 -8.8,-9.68 -13.26,-24.05 -13.26,-43.2zm896.05 -3.17l-22.29 -58.64 -189.77 0 -22.29 59.84c-8.7,23.4 -16.09,39.17 -22.29,47.33 -6.08,8.17 -16.2,12.31 -30.21,12.31 -11.85,0 -22.4,-4.36 -31.54,-13.06 -9.13,-8.71 -13.69,-18.6 -13.69,-29.6 0,-6.42 1.1,-13.05 3.16,-19.81 2.17,-6.85 5.65,-16.21 10.54,-28.4l119.35 -303.37c3.49,-8.72 7.5,-19.15 12.28,-31.34 4.79,-12.3 9.9,-22.41 15.33,-30.47 5.44,-8.05 12.5,-14.58 21.31,-19.59 8.79,-5.01 19.66,-7.5 32.6,-7.5 13.26,0 24.23,2.5 33.04,7.5 8.81,5.01 15.87,11.43 21.3,19.25 5.45,7.84 10,16.34 13.7,25.36 3.69,9.04 8.48,21.11 14.12,36.13l121.96 301.53c9.55,22.95 14.34,39.61 14.34,50.04 0,10.78 -4.45,20.79 -13.47,29.83 -9.03,9.02 -20,13.49 -32.73,13.49 -7.38,0 -13.8,-1.31 -19.13,-4.02 -5.22,-2.61 -9.67,-6.21 -13.36,-10.78 -3.59,-4.58 -7.4,-11.64 -11.52,-21.01 -4.25,-9.46 -7.72,-17.84 -10.77,-25.03zm-187.18 -129.8l139.45 0 -70.32 -192.61 -69.14 192.61z"/>
  </g>
 </g>
</svg>
